<mxfile host="app.diagrams.net" modified="2023-11-03T20:52:10.280Z" agent="Mozilla/5.0 (Windows NT 10.0; Win64; x64) AppleWebKit/537.36 (KHTML, like Gecko) Chrome/119.0.0.0 Safari/537.36" etag="_QbHUM9VvzaLmCuf0tw7" version="22.0.8" type="github">
  <diagram name="Страница — 1" id="QiUNXs1ZLvegVMFzne3e">
    <mxGraphModel dx="1050" dy="566" grid="1" gridSize="10" guides="1" tooltips="1" connect="1" arrows="1" fold="1" page="1" pageScale="1" pageWidth="827" pageHeight="1169" math="0" shadow="0">
      <root>
        <mxCell id="0" />
        <mxCell id="1" parent="0" />
        <mxCell id="gv3SvmiWVNwFfjYOIM12-1" value="Подготовка места" style="rounded=1;whiteSpace=wrap;html=1;" vertex="1" parent="1">
          <mxGeometry x="240" y="20" width="320" height="50" as="geometry" />
        </mxCell>
        <mxCell id="gv3SvmiWVNwFfjYOIM12-2" value="Закупка оборудования" style="rounded=1;whiteSpace=wrap;html=1;" vertex="1" parent="1">
          <mxGeometry x="240" y="100" width="320" height="50" as="geometry" />
        </mxCell>
        <mxCell id="gv3SvmiWVNwFfjYOIM12-3" value="Доставка оборудования" style="rounded=1;whiteSpace=wrap;html=1;" vertex="1" parent="1">
          <mxGeometry x="240" y="180" width="320" height="50" as="geometry" />
        </mxCell>
        <mxCell id="gv3SvmiWVNwFfjYOIM12-4" value="Установка и настройка оборудования&amp;nbsp;" style="rounded=1;whiteSpace=wrap;html=1;" vertex="1" parent="1">
          <mxGeometry x="240" y="260" width="320" height="50" as="geometry" />
        </mxCell>
        <mxCell id="gv3SvmiWVNwFfjYOIM12-5" value="Обучение персонала&amp;nbsp;" style="rounded=1;whiteSpace=wrap;html=1;" vertex="1" parent="1">
          <mxGeometry x="240" y="340" width="320" height="50" as="geometry" />
        </mxCell>
        <mxCell id="gv3SvmiWVNwFfjYOIM12-7" value="Тестирование" style="rounded=1;whiteSpace=wrap;html=1;" vertex="1" parent="1">
          <mxGeometry x="240" y="420" width="320" height="50" as="geometry" />
        </mxCell>
        <mxCell id="gv3SvmiWVNwFfjYOIM12-8" value="Открытие ларька" style="rounded=1;whiteSpace=wrap;html=1;" vertex="1" parent="1">
          <mxGeometry x="240" y="510" width="320" height="50" as="geometry" />
        </mxCell>
        <mxCell id="gv3SvmiWVNwFfjYOIM12-9" value="" style="endArrow=none;html=1;rounded=0;exitX=0.5;exitY=0;exitDx=0;exitDy=0;" edge="1" parent="1" source="gv3SvmiWVNwFfjYOIM12-2">
          <mxGeometry width="50" height="50" relative="1" as="geometry">
            <mxPoint x="350" y="120" as="sourcePoint" />
            <mxPoint x="400" y="70" as="targetPoint" />
          </mxGeometry>
        </mxCell>
        <mxCell id="gv3SvmiWVNwFfjYOIM12-10" value="" style="endArrow=none;html=1;rounded=0;exitX=0.5;exitY=0;exitDx=0;exitDy=0;" edge="1" parent="1" source="gv3SvmiWVNwFfjYOIM12-3">
          <mxGeometry width="50" height="50" relative="1" as="geometry">
            <mxPoint x="350" y="200" as="sourcePoint" />
            <mxPoint x="400" y="150" as="targetPoint" />
          </mxGeometry>
        </mxCell>
        <mxCell id="gv3SvmiWVNwFfjYOIM12-11" value="" style="endArrow=none;html=1;rounded=0;exitX=0.5;exitY=0;exitDx=0;exitDy=0;" edge="1" parent="1" source="gv3SvmiWVNwFfjYOIM12-4">
          <mxGeometry width="50" height="50" relative="1" as="geometry">
            <mxPoint x="350" y="280" as="sourcePoint" />
            <mxPoint x="400" y="230" as="targetPoint" />
          </mxGeometry>
        </mxCell>
        <mxCell id="gv3SvmiWVNwFfjYOIM12-12" value="" style="endArrow=none;html=1;rounded=0;exitX=0.5;exitY=0;exitDx=0;exitDy=0;" edge="1" parent="1" source="gv3SvmiWVNwFfjYOIM12-5">
          <mxGeometry width="50" height="50" relative="1" as="geometry">
            <mxPoint x="350" y="360" as="sourcePoint" />
            <mxPoint x="400" y="310" as="targetPoint" />
          </mxGeometry>
        </mxCell>
        <mxCell id="gv3SvmiWVNwFfjYOIM12-13" value="" style="endArrow=none;html=1;rounded=0;exitX=0.5;exitY=0;exitDx=0;exitDy=0;" edge="1" parent="1" source="gv3SvmiWVNwFfjYOIM12-7">
          <mxGeometry width="50" height="50" relative="1" as="geometry">
            <mxPoint x="350" y="440" as="sourcePoint" />
            <mxPoint x="400" y="390" as="targetPoint" />
          </mxGeometry>
        </mxCell>
        <mxCell id="gv3SvmiWVNwFfjYOIM12-14" value="" style="endArrow=none;html=1;rounded=0;exitX=0.5;exitY=0;exitDx=0;exitDy=0;" edge="1" parent="1" source="gv3SvmiWVNwFfjYOIM12-8">
          <mxGeometry width="50" height="50" relative="1" as="geometry">
            <mxPoint x="350" y="520" as="sourcePoint" />
            <mxPoint x="400" y="470" as="targetPoint" />
          </mxGeometry>
        </mxCell>
      </root>
    </mxGraphModel>
  </diagram>
</mxfile>
